<mxfile host="app.diagrams.net" modified="2024-02-19T15:43:05.689Z" agent="Mozilla/5.0 (Windows NT 10.0; Win64; x64) AppleWebKit/537.36 (KHTML, like Gecko) Chrome/121.0.0.0 Safari/537.36" version="21.1.5" etag="p6K7erB-WvzjZWG5KX_y" type="github">
  <diagram name="Page-1" id="hlJWieJgUT3JI1Q9XUU0">
    <mxGraphModel>
      <root>
        <mxCell id="0" />
        <mxCell id="1" parent="0" />
      </root>
    </mxGraphModel>
  </diagram>
</mxfile>
